<?xml version="1.0" encoding="UTF-8" standalone="no"?>
<!-- Created with Inkscape (http://www.inkscape.org/) -->
<svg
   xmlns:dc="http://purl.org/dc/elements/1.1/"
   xmlns:cc="http://creativecommons.org/ns#"
   xmlns:rdf="http://www.w3.org/1999/02/22-rdf-syntax-ns#"
   xmlns:svg="http://www.w3.org/2000/svg"
   xmlns="http://www.w3.org/2000/svg"
   xmlns:sodipodi="http://sodipodi.sourceforge.net/DTD/sodipodi-0.dtd"
   xmlns:inkscape="http://www.inkscape.org/namespaces/inkscape"
   width="600"
   height="600"
   id="svg2"
   sodipodi:version="0.32"
   inkscape:version="0.46"
   version="1.0"
   sodipodi:docname="Spot-R.svg"
   inkscape:output_extension="org.inkscape.output.svg.inkscape">
  <defs
     id="defs4">
    <inkscape:perspective
       sodipodi:type="inkscape:persp3d"
       inkscape:vp_x="0 : 526.18109 : 1"
       inkscape:vp_y="0 : 1000 : 0"
       inkscape:vp_z="744.09448 : 526.18109 : 1"
       inkscape:persp3d-origin="372.04724 : 350.78739 : 1"
       id="perspective10" />
    <inkscape:perspective
       id="perspective2464"
       inkscape:persp3d-origin="372.04724 : 350.78739 : 1"
       inkscape:vp_z="744.09448 : 526.18109 : 1"
       inkscape:vp_y="0 : 1000 : 0"
       inkscape:vp_x="0 : 526.18109 : 1"
       sodipodi:type="inkscape:persp3d" />
  </defs>
  <sodipodi:namedview
     id="base"
     pagecolor="#ffffff"
     bordercolor="#666666"
     borderopacity="1.0"
     gridtolerance="10000"
     guidetolerance="10"
     objecttolerance="10"
     inkscape:pageopacity="0.0"
     inkscape:pageshadow="2"
     inkscape:zoom="0.98994949"
     inkscape:cx="442.2125"
     inkscape:cy="313.08184"
     inkscape:document-units="px"
     inkscape:current-layer="layer1"
     showgrid="false"
     inkscape:window-width="1024"
     inkscape:window-height="712"
     inkscape:window-x="-4"
     inkscape:window-y="-4" />
  <metadata
     id="metadata7">
    <rdf:RDF>
      <cc:Work
         rdf:about="">
        <dc:format>image/svg+xml</dc:format>
        <dc:type
           rdf:resource="http://purl.org/dc/dcmitype/StillImage" />
      </cc:Work>
    </rdf:RDF>
  </metadata>
  <g
     inkscape:label="Layer 1"
     inkscape:groupmode="layer"
     id="layer1">
    <path
       style="opacity:1;fill:#ff0000;fill-opacity:1;fill-rule:evenodd;stroke:#000000;stroke-width:0.99984903;stroke-linecap:butt;stroke-linejoin:miter;stroke-miterlimit:4;stroke-dasharray:none;stroke-dashoffset:0;stroke-opacity:1"
       d="M 486.13086,648.43927 C 483.10618,644.59397 481.67275,636.22193 482.90124,629.57641 C 484.12375,622.96319 484.53987,622.12418 497.21281,600.71906 C 515.94473,569.08011 522.61658,552.0856 535.63305,502.85537 C 536.20368,500.69709 533.43627,498 530.65108,498 C 527.03069,498 524.2597,500.70204 522.52538,505.92358 C 520.56905,511.81351 519.28697,513.01769 514.25346,513.69283 C 509.45087,514.33701 503.72988,512.04357 501.4466,508.55885 C 499.83184,506.0944 499.83701,505.46121 501.5406,497.06937 C 503.24272,488.68482 503.24906,487.94067 501.65402,483.76413 C 496.91405,471.3527 485.21267,469.87587 478.5,480.84188 C 473.98497,488.21774 464.14853,500.88209 458.45235,506.65308 C 448.36805,516.8698 441.77639,517.19584 434.98028,507.81409 C 432.73247,504.71109 432,502.60251 432,499.23483 C 432,495.35451 432.49112,494.3184 435.75,491.32346 C 440.55114,486.91118 447.32443,483.14628 458,478.95591 C 472.5353,473.25053 478.93688,468.18199 482.56025,459.51003 C 485.25501,453.0606 484.00178,445.14169 479.94257,442.96926 C 473.97911,439.77771 466.95949,445.13227 455.00705,461.99006 C 443.91825,477.62976 437.91886,481.46699 425.53335,480.84155 C 416.97137,480.40919 412.9101,478.11615 408.23182,471.07291 C 403.9655,464.64989 402.73287,459.9325 403.16109,451.66657 C 403.47655,445.57706 404.01199,443.80589 406.72378,439.88146 C 410.51851,434.38978 417.40532,429.76429 425.06098,427.5653 C 428.18591,426.6677 437.82331,425.56813 447.06098,425.05521 C 467.49388,423.92068 473.78359,422.67914 496.23977,415.34773 C 507.59299,411.64119 511,409.09512 511,404.31739 C 511,401.42106 506.87149,397.33687 503.17098,396.57245 C 500.45279,396.01095 479.87632,394.00236 476.82673,394.00084 C 474.04947,393.99944 469.12231,389.10251 468.07245,385.30023 C 466.5606,379.82475 468.77908,375.40585 473.70589,374.0792 C 478.95105,372.66683 482.83233,373.89273 492.51073,380.01874 C 496.90482,382.80002 503.56274,386.0101 507.30609,387.15224 C 513.84217,389.14648 514.28854,389.16152 518.55776,387.53109 C 527.14697,384.25084 528.18181,378.46431 522.25,366.88549 C 517.35586,357.33219 508.35184,347.7112 500.68178,343.83936 C 489.10301,337.99442 481.56004,328.71142 476.84186,314.5 C 474.96355,308.84242 474.52341,305.39048 474.54677,296.5 C 474.57238,286.74931 474.87616,284.84987 477.22145,279.77567 C 483.06905,267.12403 494.6671,266.7725 502.19081,279.01886 C 504.60251,282.94437 505.33216,286.28986 508.07553,306 C 511.66861,331.81506 513.04317,336.06616 521,345.97159 C 529.23795,356.22699 536.48717,359.51283 540.97456,355.02544 C 543.91581,352.08419 544.33368,348.86006 542.54912,342.87714 C 541.66698,339.91971 540.68665,334.35 540.37058,330.5 C 539.87346,324.44492 540.21465,322.20364 542.89796,313.89657 C 547.9272,298.32687 546.94101,291.59539 537.38447,276.26255 C 531.82597,267.34429 531.28716,263.45988 535.05,259.43233 C 539.73362,254.41922 546.45872,252.43795 548.88164,255.35739 C 549.65095,256.28436 549.93147,262.86406 549.76628,276.10739 C 549.49899,297.53326 549.13943,295.91287 557.50928,311 C 560.3877,316.18853 562.95745,327.23471 562.98264,334.52749 C 562.99254,337.40474 563.6572,340.49328 564.53661,341.74881 C 567.318,345.7198 576.81032,346.84848 580.81642,343.68454 C 581.54046,343.11272 584.10486,339.59644 586.5151,335.87058 C 589.02216,331.9951 592.62576,327.9525 594.93652,326.42331 C 598.39845,324.13231 599.75446,323.81491 604.42524,324.20224 C 608.96535,324.57874 610.55327,325.26712 613.94028,328.32708 C 617.13584,331.2141 618.82737,332 621.8456,332 C 629.84205,332 639,324.40309 639,317.76973 C 639,316.15574 637.64487,311.74769 635.9886,307.97403 C 631.54162,297.84196 631.29015,293.97369 634.46168,284.48519 C 639.93078,268.12289 644.82978,263.57685 657,263.57068 C 667.12105,263.56556 674.06953,268.39676 675.83299,276.66505 C 677.01281,282.19698 676.15525,286.30468 671.27442,298.5 C 660.6608,325.01936 660.00413,333.23942 667.87081,341.10611 C 669.89407,343.12935 673.436,345.34995 675.7418,346.04079 C 682.51528,348.07017 687.33977,345.62166 696.54425,335.4831 C 705.7426,325.35131 710.47825,322.91951 716.28537,325.34588 C 719.3499,326.62632 720.10608,327.61811 721.43847,332.10477 C 722.2973,334.9968 723,338.46662 723,339.81548 C 723,350.44919 713.22562,360.99134 700.5,364.08282 C 697.75,364.75089 693.34628,366.37136 690.71395,367.68386 C 675.61636,375.21166 682.01678,390.90808 700.21249,390.97804 C 708.27761,391.00905 715.25676,388.0432 724,380.86937 C 739.91412,367.81184 759.51964,353.84024 767.33683,349.98596 C 779.88926,343.79696 797.02313,341.42476 809.07666,344.20705 C 821.5127,347.07763 826.32749,359.61598 819.92026,372.44521 C 816.56609,379.16123 815.58276,379.45891 803.67259,377.36357 C 784.56976,374.00285 767.90166,375.50911 751.26906,382.09918 C 737.30582,387.63162 722.26326,395.78592 719.68161,399.22219 C 714.36281,406.30175 715.64778,413.77105 723.03457,418.71182 C 731.94987,424.67494 734.15968,427.23703 734.72671,432.26778 C 735.47995,438.95016 733.74938,442.18456 726.82022,447.04509 C 717.67819,453.45787 715.04124,459.33464 718.40499,465.79966 C 720.49307,469.81286 723.86343,472.59396 730.00295,475.36985 C 738.03618,479.00196 743.56986,479.51894 752.69158,477.48955 C 763.60816,475.06083 771.18618,475.8181 778.6651,480.08507 C 790.89336,487.06169 797.37203,495.52665 801.56054,510 C 803.01356,515.02092 803.4337,519.6857 803.40685,530.5 C 803.36759,546.30649 802.12748,551.20978 796.77139,556.73587 C 784.63573,569.25675 766.04191,552.06377 759.53878,522.30833 C 756.73318,509.47102 753.55744,502.50669 748.09662,497.21565 C 740.94855,490.28983 723.23534,483.17047 716.36056,484.46018 C 711.97181,485.28353 705.40579,491.8787 704.02474,496.85084 C 701.69765,505.22902 703.2731,510.4242 711.51539,521.55171 C 727.19633,542.72173 731.72202,551.40885 732.74291,562.29808 C 733.39766,569.28194 732.18888,571.9758 727.14927,574.76375 C 722.03846,577.59111 717.80805,578.29467 713.26855,577.07231 C 707.89948,575.62655 704.85378,572.10579 704.39297,566.81227 C 701.97892,539.08125 700.26629,532.00765 694.27042,525.00282 C 688.01329,517.69282 677.79338,514.97036 669.54566,518.41647 C 663.14978,521.08888 662.02354,524.84354 663.49981,538.57254 C 664.03136,543.51591 663.89585,546.32609 663.04967,547.90719 C 661.77711,550.28498 656.4552,553 653.06691,553 C 647.62919,553 639.49551,540.48375 635.04012,525.26 C 632.32234,515.97343 629.68693,512.8 624.6927,512.8 C 619.02648,512.80001 616.30295,515.15008 614.40567,521.67648 C 611.79909,530.64293 612.84041,538.96462 618.76333,556.5 C 624.53863,573.59825 625.26952,575.36015 634.52745,594.5 C 639.73332,605.26267 641.40627,609.80511 641.76214,614.14403 C 642.37069,621.56391 640.6298,626.64503 636.64691,629.07366 C 630.616,632.75107 626.95552,631.12671 622.17163,622.65012 C 617.52361,614.41426 616.12986,607.97945 615.05961,589.81461 C 613.53861,563.99982 608.32056,541.38457 599.46074,522.20866 C 595.14047,512.85799 593.52464,511 589.71305,511 C 581.76291,511 575.68207,519.18701 575.60089,530 C 575.55694,535.85459 575.96921,537.22472 579.75295,543.79878 C 582.06345,547.81312 584.6392,553.11633 585.47691,555.58373 C 587.01582,560.11655 587.37199,571.39675 586.12151,576 C 585.07382,579.85667 579.75069,581.99663 571.20034,581.99845 C 562.08607,582.00037 558.78521,580.4197 556.62395,575.01818 C 554.0157,568.49953 554.58682,562.27468 559,549.12063 C 563.68376,535.16009 564.34216,525.55186 561.10367,518.4214 C 559.1125,514.03735 554.77314,510 552.05223,510 C 546.18665,510 537.17372,529.76922 530.50613,557.25976 C 526.95163,571.91509 525.74088,578.91465 521.55657,609 C 518.76706,629.05668 517.17656,634.70609 512.50846,641.13864 C 505.95567,650.16825 490.79213,654.36508 486.13086,648.43924 L 486.13086,648.43927 z"
       id="path2529"
       transform="matrix(1.0101525,0,0,1.0101525,-323.88719,-138.96215)" />
  </g>
</svg>
